<?xml version="1.0" encoding="utf-8"?>
<!-- Generator: Adobe Illustrator 18.1.0, SVG Export Plug-In . SVG Version: 6.00 Build 0)  -->
<svg version="1.1" id="Layer_1" xmlns="http://www.w3.org/2000/svg" xmlns:xlink="http://www.w3.org/1999/xlink" x="0px" y="0px"
	 viewBox="0 0 38.4 26.2" enable-background="new 0 0 38.4 26.2" xml:space="preserve">
<g>
	<line fill="#FFFFFF" x1="2.4" y1="2.5" x2="36" y2="2.5"/>
	<g>
		<path fill="#8A713D" d="M2.4,5C13.6,5,24.8,5,36,5c3.2,0,3.2-5,0-5C24.8,0,13.6,0,2.4,0C-0.8,0-0.8,5,2.4,5L2.4,5z"/>
	</g>
</g>
<g>
	<line fill="#FFFFFF" x1="2.4" y1="13.1" x2="36" y2="13.1"/>
	<g>
		<path fill="#8A713D" d="M2.4,15.6c11.2,0,22.4,0,33.5,0c3.2,0,3.2-5,0-5c-11.2,0-22.4,0-33.5,0C-0.8,10.6-0.8,15.6,2.4,15.6
			L2.4,15.6z"/>
	</g>
</g>
<g>
	<line fill="#FFFFFF" x1="2.4" y1="23.7" x2="36" y2="23.7"/>
	<g>
		<path fill="#8A713D" d="M2.4,26.2c11.2,0,22.4,0,33.5,0c3.2,0,3.2-5,0-5c-11.2,0-22.4,0-33.5,0C-0.8,21.2-0.8,26.2,2.4,26.2
			L2.4,26.2z"/>
	</g>
</g>
</svg>
