<?xml version="1.0" encoding="utf-8"?>
<!-- Generator: Adobe Illustrator 18.1.0, SVG Export Plug-In . SVG Version: 6.00 Build 0)  -->
<svg version="1.1" id="Layer_1" xmlns="http://www.w3.org/2000/svg" xmlns:xlink="http://www.w3.org/1999/xlink" x="0px" y="0px"
	 viewBox="0 0 599 925" enable-background="new 0 0 599 925" xml:space="preserve">
<path fill="#FFFFFF" d="M555,490.9c5.8,8.5,12.9,16,20.1,23.3c21.3,21.7,26.3,62.8-1.1,87.6c-3.2,2.9-4.2,6.1-4.4,10.1
	c-0.5,13,2.7,25.4,6.2,37.7c3.5,12.5,9.5,24.1,12.3,36.8c4.7,21.6,6.2,43.1-0.9,64.6c-2.7,8.2-7.4,15.1-12.3,22.1
	c-1.1,0.1-1.8,0.7-1.8,1.9c-0.3,0.1-0.4,0.3-0.4,0.6c-3.7,3.1-7.5,6.2-11.2,9.2c-0.4,0-0.6,0.2-0.7,0.5c-8.4,4.4-16.9,8.4-26.2,10.4
	c-2.8,0.6-4,2.8-4.9,5.1l0,0c-2.9,2.2-5.3,4.8-6.9,8.1l0,0c-4.8,3.6-8.6,8.1-12.2,12.8c0,0,0-0.1,0-0.1c-1.6,0.4-2.4,1.6-3,3.1
	l0.1,0c-0.7,0-1.1,0.4-1.1,1.1c0,0,0.1-0.1,0.1-0.1c-0.4,0.4-0.7,0.7-1.1,1.1c0,0,0.1-0.1,0.1-0.1c-0.7,0.1-1,0.5-1.1,1.1
	c0,0,0.1-0.1,0.1-0.1c-0.5,0.4-0.9,0.7-1.4,1.1c-5.1,4.2-10.1,8.4-15.3,12.5c-5,4-10.2,7.9-15.3,11.8c-0.6,0.2-1.3,0.3-1.8,0.6
	c-11,7.3-22.1,14.3-33.8,20.4c-4.3,2.3-9.4,3.2-13.1,6.8c-7.5,2.7-14.9,5.6-22.4,8c-19.8,6.3-40.1,10.7-60.8,12.7
	c-34.1,3.3-67.7,0.5-100.8-8.4c-36.9-10-70.3-26.7-100.1-50.5c-5-4-9.6-6.3-16.5-5.6c-14,1.3-27-8.2-33.2-22.6
	c-0.6-1.4-1.1-2.8-1.6-4.2c-0.8-2.3-2.8-1.2-4.3-1.4c-0.6-0.1-1.3-0.2-1.9-0.3c-1.6-1.9-3.8-1.8-5.9-1.8c-0.3-0.1-0.7-0.2-1-0.3
	c-3.5-3.8-8-6.3-12.3-9c-5.2-3.9-7.6-9.6-9.3-15.4c-1.1-3.6-2.5-7.2-2.4-11.1c0.1-2.5-1.5-3.9-3.8-4.6
	c-20.3-6.6-30.4-21.7-34.7-41.6c-7.9-36.5-6.3-72.8,4.3-108.5c9.2-31.3,24.6-59.3,45.4-84.4c15.1-18.2,31.8-34.6,50.6-49
	c2.5-1.9,6.6-2.8,6.9-5.9c0.3-2.7-3.2-4.7-4.7-7.2c-5.8-9.4-8.9-19.5-9.6-30.6c-1.3-19.9-2.7-39.8-6.9-59.4
	c-1.7-7.8-3.8-15.4-3.9-23.5c0-23.3,8.5-43.4,22.5-61.5c7.7-10,16.5-19,26.6-26.7c0.4-0.3,0.5-0.9,0.7-1.3
	c12.1-7.6,23-16.7,33.8-25.9c7.8-5.5,15.6-10.9,23.3-16.5c10.5-7.7,21.5-14.8,32.6-21.6c0.8-0.5,1.5-1.2,2.3-1.9
	c5-1.5,5.8-3.1,3.3-7.1c-0.9-1.5-2.1-2.8-3.2-4.2c-6.5-12.6-12-25.5-15-39.4c-3.8-17.9-3.6-35.6,1.4-53.3
	c4.9-17.7,13.9-33.1,26.1-46.5c8.5-9.4,19.6-15.9,31.2-21.2c36.1-16.5,72-14.4,107.7,1.2c19.8,8.6,37.8,20.2,53.6,34.9
	c18.1,16.8,29.6,37.7,37,61c11.2,35.2,10.1,70.7,2.5,106.5c-6.4,30.3-18,58.6-31.4,86.3c-1.8,3.7-1.6,6.9,0,10.5
	c7.1,15.4,16.9,28.6,29.2,40.3c5.5,5.2,10.8,10.5,16.8,15.1c2.1,3.8,5.9,5.6,9.2,8c18.7,13.8,29.7,31.3,26.1,55.6
	c-0.3,1.8-0.8,3.7,0,5.4C537.5,467.4,545.3,479.8,555,490.9z"/>
<path fill="#AFBC24" d="M555,490.9c5.8,8.5,12.9,16,20.1,23.3c21.3,21.7,26.3,62.8-1.1,87.6c-3.2,2.9-4.2,6.1-4.4,10.1
	c-0.5,13,2.7,25.4,6.2,37.7c3.5,12.5,9.5,24.1,12.3,36.8c4.7,21.6,6.2,43.1-0.9,64.6c-2.7,8.2-7.4,15.1-12.3,22.1
	c-1.1,0.1-1.8,0.7-1.8,1.9c-0.3,0.1-0.4,0.3-0.4,0.6c-3.7,3.1-7.5,6.2-11.2,9.2c-0.4,0-0.6,0.2-0.7,0.5c-8.4,4.4-16.9,8.4-26.2,10.4
	c-2.8,0.6-4,2.8-4.9,5.1l0,0c-2.9,2.2-5.3,4.8-6.9,8.1l0,0c-4.8,3.6-8.6,8.1-12.2,12.8c0,0,0-0.1,0-0.1c-1.6,0.4-2.4,1.6-3,3.1
	l0.1,0c-0.7,0-1.1,0.4-1.1,1.1c0,0,0.1-0.1,0.1-0.1c-0.4,0.4-0.7,0.7-1.1,1.1c0,0,0.1-0.1,0.1-0.1c-0.7,0.1-1,0.5-1.1,1.1
	c0,0,0.1-0.1,0.1-0.1c-0.5,0.4-0.9,0.7-1.4,1.1c-5.1,4.2-10.1,8.4-15.3,12.5c-5,4-10.2,7.9-15.3,11.8c-0.6,0.2-1.3,0.3-1.8,0.6
	c-11,7.3-22.1,14.3-33.8,20.4c-4.3,2.3-9.4,3.2-13.1,6.8c-7.5,2.7-14.9,5.6-22.4,8c-19.8,6.3-40.1,10.7-60.8,12.7
	c-34.1,3.3-67.7,0.5-100.8-8.4c-36.9-10-70.3-26.7-100.1-50.5c-5-4-9.6-6.3-16.5-5.6c-14,1.3-27-8.2-33.2-22.6
	c-0.6-1.4-1.1-2.8-1.6-4.2c-0.8-2.3-2.8-1.2-4.3-1.4c-0.6-0.1-1.3-0.2-1.9-0.3c-1.6-1.9-3.8-1.8-5.9-1.8c-0.3-0.1-0.7-0.2-1-0.3
	c-3.5-3.8-8-6.3-12.3-9c-5.2-3.9-7.6-9.6-9.3-15.4c-1.1-3.6-2.5-7.2-2.4-11.1c0.1-2.5-1.5-3.9-3.8-4.6
	c-20.3-6.6-30.4-21.7-34.7-41.6c-7.9-36.5-6.3-72.8,4.3-108.5c9.2-31.3,24.6-59.3,45.4-84.4c15.1-18.2,31.8-34.6,50.6-49
	c2.5-1.9,6.6-2.8,6.9-5.9c0.3-2.7-3.2-4.7-4.7-7.2c-5.8-9.4-8.9-19.5-9.6-30.6c-1.3-19.9-2.7-39.8-6.9-59.4
	c-1.7-7.8-3.8-15.4-3.9-23.5c0-23.3,8.5-43.4,22.5-61.5c7.7-10,16.5-19,26.6-26.7c0.4-0.3,0.5-0.9,0.7-1.3
	c12.1-7.6,23-16.7,33.8-25.9c7.8-5.5,15.6-10.9,23.3-16.5c10.5-7.7,21.5-14.8,32.6-21.6c0.8-0.5,1.5-1.2,2.3-1.9
	c5-1.5,5.8-3.1,3.3-7.1c-0.9-1.5-2.1-2.8-3.2-4.2c-6.5-12.6-12-25.5-15-39.4c-3.8-17.9-3.6-35.6,1.4-53.3
	c4.9-17.7,13.9-33.1,26.1-46.5c8.5-9.4,19.6-15.9,31.2-21.2c36.1-16.5,72-14.4,107.7,1.2c19.8,8.6,37.8,20.2,53.6,34.9
	c18.1,16.8,29.6,37.7,37,61c11.2,35.2,10.1,70.7,2.5,106.5c-6.4,30.3-18,58.6-31.4,86.3c-1.8,3.7-1.6,6.9,0,10.5
	c7.1,15.4,16.9,28.6,29.2,40.3c5.5,5.2,10.8,10.5,16.8,15.1c2.1,3.8,5.9,5.6,9.2,8c18.7,13.8,29.7,31.3,26.1,55.6
	c-0.3,1.8-0.8,3.7,0,5.4C537.5,467.4,545.3,479.8,555,490.9z M156,613.1c-1.3,0.1-2.6,0.4-2.8,2c-16.3,11.8-31.3,25.1-44,40.7
	c-17.6,21.8-30.6,46.1-37.7,73.3c-3.5,13.4-5.5,27.1-4.4,41c1,13.3,8.3,22.1,20,24.6c5.2,1.1,10.5,1.8,15.7,2.7
	c0.1,1.5,0.3,3,0.2,4.5c-1.5,14.2,16.3,26.5,28.4,19c2.2-1.4,3.6,0,5.4-0.1c6.7,5.4,13.1,11.1,20.1,16.2
	c15.9,11.7,33.1,21.2,51.3,29.1c22.2,9.7,45.3,16.1,69.3,19.4c24.4,3.3,48.8,3.2,73.2-0.1c16.8-2.3,33.4-6.1,49.5-11.3
	c18.9-6.2,36.6-15.5,53.5-26c26.9-16.7,49.9-37.8,69.1-63c1.1-1.4,1.6-2.4,0.6-3.9c5,0.3,9.9-0.1,14.1-3.2c0.7-0.5,1.9-0.7,2.8-0.8
	c13.2-0.4,20.9-8.5,26.4-19.2c1.3-2.6,1.4-5.2,5-5.4c0.3,0,0.8-0.6,0.9-1c1.3-6.3,5.5-11.9,4.5-18.9c-1-6.6,0.9-13.3,0.2-20.1
	c-0.6-6-1.9-12-2.9-17.9c-0.7-4.7-0.8-10-3.5-14.6c-3-5-3.8-10.9-6-16.3c-2.1-5.3-2.8-11.2-4.9-16.2c-3.2-7.3-3.9-14.9-4.7-22.3
	c-0.9-9.1-1.5-18.4,1.4-27.4c1.7-1.8,3.5-3.5,5.3-5.1c5.5-4.8,10.6-10.3,12.9-17.3c6.8-21,1.5-39.1-14.2-54.3
	c-4.9-6.2-10.2-12.1-15.8-17.8c-10.2-14.2-21-28-28.1-44.1c-1-2.4-2.6-3.2-4.4,0c-1.3,2.2-3.6,3.8-5.4,5.7c-1.1,0.4-2.3,0.6-3.2,1.2
	c-12,9.7-26.2,15.4-40.5,20.6c-22.5,8.1-45.9,12.9-69.1,18.8c-8.3,2.1-16.9,3.5-24.6,7.4c-3.3-0.1-6.2,1.4-9.2,2.3
	c-21.4,6.5-42.8,13.1-63.4,22c-1.6-0.2-2.9,0.5-4.3,1.1c-5.7,2.3-11.5,4.4-17,6.9c-11.3,5.2-22.9,9.5-33.7,15.8
	c-0.3,0.1-0.7,0.2-1,0.3c-8.7,4-17.4,7.8-25.2,13.5l0.1,0c-1.7,0-3,0.7-4,2.1l0,0c-3.9,1.1-7.4,3-10.3,5.9
	c-14.3,7.6-27.8,16.5-40.7,26.3C158.9,609.8,157.3,611.2,156,613.1L156,613.1z M432,321c0.6,0,0.9-0.4,0.8-1l0.1-0.3
	c7.1-12.3,13.1-25.2,17.8-38.6c1.9-4.8,3.9-9.5,5.6-14.3c11.5-32.6,17.9-65.9,15.1-100.7c-2.3-28.1-11.1-53.8-27.9-76.6
	c-7.2-9.8-15.8-18.2-26.3-24.5c-0.7-1.9-2.5-2.6-4-3.6C401.7,54,390.1,47,377.4,42c-21.6-8.6-43.8-12-66.8-7.3
	c-4.4,0.4-9,1.5-12.8,3.1c-7.4,3.3-15.2,5.4-21.8,10.8c-8.2,6.7-17.4,12.3-24,20.8c-8.5,11-14.4,23.2-16.8,36.9c-0.5,3-2,5.7-2,9
	c0.1,10.7-0.2,21.5,2,32.1c0.4,2,0.6,4.1,1.3,6.1c1.1,3.4,3.4,6.6,4.1,9.5c1.2,5.3,4.3,9.3,6.1,14.1c3,8.1,8.5,15,13.7,21.9
	c1.2,1.5,1.5,4.1,0.6,4.5c-3,1.4-3.6,5.9-7.7,5.5c-1.7-0.1-3.1,0.9-4.6,1.4c-4,1.4-6.6,4.9-10.3,6.5c-3.4,1.4-6.4,3-9.3,5.2
	c-2.6,2-3.7,5.1-6.6,6.9c-5.5,3.4-10.9,6.6-16.9,9.2c-8.6,3.8-14.2,12.2-21.3,18.3c-1.6,1.4-1.6,3.5-4.1,4.6
	c-7.1,3.1-12.3,9.1-19,13.2c-8.9,5.4-17,12.5-23.9,20.8c-5.4,6.6-11.5,12.5-15.6,20.1c-2.5,4.6-7,8.6-7.9,13.3
	c-1.2,5.9-2.3,11.9-2.7,17.9c-0.9,13.7,1.6,27,3.8,40.5c1.8,10.9,2.5,22,4.1,33c1.3,8.7-0.1,17.7,1.9,26.6c1.4,6.4,3.5,12,7.8,16.5
	c4.3,4.5,9.3,8.3,13.9,12.5c1.4,1.3,2.8,1.6,4.5,1.3c2.1,2.1,3.7,0.3,5.2-0.8c22.5-15.7,46.9-27.9,72-38.6
	c19.3-8.2,38.9-15.1,59-21.1c13.6-4.1,27-8.9,39.7-15.6c2.8-0.4,5.2-1.7,7.2-3.7l0.4,0l0.3-0.3c7.6-2.9,14.6-7,21.2-11.8
	c0.4,0.1,0.6,0,0.8-0.3c1.6,0,2.7-1.1,3.9-2c8.9-6.1,17.9-11.9,26.6-18.3c11.4-8.4,22.6-17.1,32.3-27.5l0.1,0c0.6,0,1-0.2,1-0.9l0,0
	C422.7,331.7,427.7,326.8,432,321L432,321z"/>
<path fill="#AFBC24" d="M557.4,846.9l-0.2-0.1L557,847c-5.7,3.2-11.8,3.2-18,2c-2.8-1.7-5.4-3.7-7.7-6.1c-0.4-1.5-1.1-2.9-2.2-4
	c0,0,0,0,0,0c-0.2-1.3-0.3-2.6-0.5-3.9c-2-12.5,7.8-22.6,20.3-21.1c3.8,0.5,6.8,2.5,10,4.2l0-0.1c0.1,0.7,0.5,1,1.1,0.9l0,0
	c6,8.7,5.8,17.2-0.3,25.7c0,0,0.1,0,0.1,0c-0.7,0.1-1,0.4-1.1,1.1c0,0,0.2-0.1,0.2-0.1C558.4,846.1,557.9,846.5,557.4,846.9z
	 M560.7,831.5c0.2-6.9-6.9-14.1-14-14.2c-7.5-0.1-14.2,6.4-14.4,14.3c-0.3,7.4,6.2,14.2,13.6,14.4
	C553.5,846,560.5,839.3,560.7,831.5z"/>
<path fill="#F28886" d="M63.3,797.7c4.3,2.7,8.8,5.2,12.3,9C70.5,805.1,65.7,803,63.3,797.7z"/>
<path fill="#F28886" d="M76.6,807c2.1,0,4.3-0.1,5.9,1.8C80.3,808.9,78.2,808.8,76.6,807z"/>
<path fill="#F28886" d="M84.5,809.1c1.5,0.2,3.5-0.9,4.3,1.4C87.1,810.8,85.4,810.9,84.5,809.1z"/>
<path fill="#FDFCFB" d="M505.8,826.9c0.4-0.4,0.7-0.7,1.1-1.1C506.5,826.2,506.2,826.5,505.8,826.9z"/>
<path fill="#FDFCFB" d="M503.5,828.9c0.5-0.4,0.9-0.7,1.4-1.1C504.5,828.2,504,828.5,503.5,828.9z"/>
<path fill="#FDFDFB" d="M161,609.2c12.9-9.8,26.4-18.7,40.7-26.3c2.7,0.8,4.1-2.5,6.9-2c3.1,0.6,3.6-1.5,3.4-4c0,0,0,0,0,0
	c1.7,0.1,3.3-0.1,4-2.1c0,0-0.1,0-0.1,0c3.9,1.3,5.7-2.9,8.5-3.5c5.4-1.1,9.5-4.6,14.5-6.3c2.3-0.8,2.1-2.2,2.1-3.8
	c0.3-0.1,0.7-0.2,1-0.3c9.2-2.1,17.3-6.8,26-10.3c1.3-0.5,2.4-2.5,3.9-1.4c3.3,2.6,5-0.6,6.5-2c1.4-1.4,2.7-1.7,4.3-2.4
	c4.9-2.2,10.3-3.8,14.3-7.6c20.6-8.9,42-15.6,63.4-22c3-0.9,5.9-2.4,9.2-2.3c10.7,1.1,20.1-4.7,30.3-6.5c9.1-1.6,18.1-5,27.2-7
	c10.5-2.3,20.3-6.4,30.7-8.9c11.7-2.8,23.2-7.3,33.6-13.6c5.6-3.4,12.5-5.3,15.6-12c1.8-1.9,4.1-3.5,5.4-5.7c1.8-3.2,3.4-2.3,4.4,0
	c7.1,16.1,17.9,29.9,28.1,44.1c2.1,5.9,7.4,9.7,10.4,15.1c1,1.8,2.9,3.2,5.4,2.7c15.8,15.2,21,33.3,14.2,54.3
	c-2.3,7.1-7.4,12.5-12.9,17.3c-1.9,1.6-3.7,3.3-5.3,5.1c-9.7,6.9-20.2,12.1-31.4,15.9c-19.4,6.6-39.4,10.6-59.7,13.6
	c-28.5,4.1-57.2,6.1-85.9,6.8c-36,0.8-72.2-1.9-107.8,6.9c-25.7,6.4-50.3,15.2-72.9,28.9c-21.6,13.1-40.4,29.6-56.1,49.6
	c-12.7,16.2-22.8,33.8-30.5,52.9c-3.3,8.3-6.4,16.7-9.6,25.1c-5.2-0.9-10.5-1.6-15.7-2.7c-11.7-2.5-19-11.3-20-24.6
	c-1.1-13.9,1-27.6,4.4-41c7-27.2,20.1-51.5,37.7-73.3c12.6-15.7,27.7-28.9,44-40.7c1.3-0.1,2.3-0.8,2.8-2l0,0
	C160.7,615.6,161.5,613.2,161,609.2z"/>
<path fill="#F28886" d="M102.9,797.4c3.2-8.4,6.3-16.8,9.6-25.1c7.7-19,17.9-36.6,30.5-52.9c15.6-20.1,34.5-36.5,56.1-49.6
	c22.6-13.7,47.2-22.5,72.9-28.9c35.6-8.8,71.8-6,107.8-6.9c28.8-0.7,57.4-2.6,85.9-6.8c20.3-2.9,40.3-7,59.7-13.6
	c11.2-3.8,21.7-9,31.4-15.9c-2.9,9-2.4,18.4-1.4,27.4c0.8,7.4,1.5,15,4.7,22.3c2.2,5,2.8,10.9,4.9,16.2c2.1,5.4,3,11.3,6,16.3
	c2.8,4.6,2.8,9.9,3.5,14.6c0.9,5.9,2.3,11.8,2.9,17.9c0.7,6.8-1.2,13.5-0.2,20.1c1,7-3.2,12.6-4.5,18.9c-0.1,0.4-0.6,1-0.9,1
	c-3.6,0.2-3.7,2.9-5,5.4c-5.5,10.7-13.2,18.8-26.4,19.2c-0.9,0-2.1,0.2-2.8,0.8c-4.3,3.1-9.1,3.5-14.1,3.2c-0.8-0.3-1.6-0.4-2.3-0.8
	c-20-11.8-41.2-20.7-63.1-28.3c-36.3-12.5-73.7-18.7-111.9-20.8c-22.8-1.2-45.6-0.4-68.2,2.8c-34.7,4.9-68,14-98,33
	c-18.1,11.4-32,26.9-42.1,45.7c-1.4,2.6-2.4,5.1-0.9,8c-1.8,0.1-3.1-1.3-5.4,0.1c-12.2,7.6-29.9-4.8-28.4-19
	C103.2,800.4,102.9,798.9,102.9,797.4z"/>
<path fill="#F28886" d="M147.1,476.9c-1.7,0.3-3.1,0-4.5-1.3c-4.6-4.2-9.6-8-13.9-12.5c-4.3-4.5-6.4-10.1-7.8-16.5
	c-2-8.9-0.6-17.8-1.9-26.6c-1.6-11-2.3-22.1-4.1-33c-2.2-13.5-4.7-26.8-3.8-40.5c0.4-6,1.6-12.1,2.7-17.9c0.9-4.8,5.5-8.7,7.9-13.3
	c4.1-7.6,10.2-13.6,15.6-20.1c6.9-8.3,15-15.4,23.9-20.8c6.7-4.1,11.9-10.1,19-13.2c2.5-1.1,2.5-3.2,4.1-4.6
	c7.1-6.2,12.7-14.6,21.3-18.3c6-2.6,11.4-5.8,16.9-9.2c2.9-1.8,4-4.9,6.6-6.9c2.9-2.3,5.9-3.8,9.3-5.2c3.7-1.5,6.3-5.1,10.3-6.5
	c1.5-0.5,2.9-1.6,4.6-1.4c4.1,0.3,4.8-4.1,7.7-5.5c0.9-0.4,0.6-3-0.6-4.5c-5.2-6.9-10.7-13.7-13.7-21.9c-1.8-4.8-4.9-8.8-6.1-14.1
	c-0.7-2.9-3-6.1-4.1-9.5c-0.7-2.1-0.8-4.1-1.3-6.1c-2.3-10.6-1.9-21.3-2-32.1c0-3.3,1.5-6,2-9c2.4-13.8,8.3-26,16.8-36.9
	c6.6-8.5,15.8-14.1,24-20.8c6.6-5.4,14.4-7.5,21.8-10.8c3.8-1.7,8.3-2.8,12.8-3.1c11.6-0.1,23,1.6,34.5,3.3c3.6,1.4,7.2,2.5,11,3.1
	c6.4,3.2,12.7,6.5,19.1,9.7l0.2,0.2c0.2,0.2,0.5,0.4,0.7,0.5c0.2,0.3,0.4,0.5,0.7,0.6l0,0.1c0.5,0.3,1,0.5,1.5,0.8
	c0.3,0.2,0.5,0.4,0.8,0.7c0,0.2,0.2,0.3,0.4,0.3l0.1,0.4l0.3,0c0.4,0.2,0.9,0.4,1.3,0.6c0.1,1.2,0.7,1.8,2,1.7
	c0,0.2,0.2,0.3,0.4,0.3l0,0.3l0.3,0c0.4,0.2,0.8,0.5,1.1,0.7c0.3,0.4,0.7,0.7,1,1.1l0,0c0.4,0.3,0.7,0.7,1.1,1l-0.1,0
	c0.4,1.6,1.4,2.6,3,3l0,0c0.3,0.3,0.7,0.7,1,1l0,0c0.3,0.3,0.7,0.7,1,1l0,0c0.6,1.8,1.5,3.4,3.2,4.4c0.1,0.3,0.2,0.5,0.5,0.7l0,0.3
	l0.3,0c0.1,0.3,0.3,0.5,0.6,0.6c0.2,0.2,0.4,0.4,0.5,0.7c12.4,18.5,18.6,38.8,17.9,61.1c-0.6,20.1-4.7,39.5-11.5,58.4
	c-5,13.8-11.4,26.8-20.5,38.3c-11.1,14-24.5,25.7-39,36c-0.2,0.2-0.4,0.4-0.6,0.6l-0.2,0.2c-0.3,0.3-0.7,0.5-1,0.8
	c-0.7,0.4-1.3,0.8-2,1.2c-3,1-5.7,2.5-8,4.7l0,0c-5.7,1.9-11.1,4.5-15.9,8c-0.4,0.1-0.7,0.3-1.1,0.4c-1.8,0.1-3.4,0.7-4.1,2.5
	c-0.6,0.2-1.2,0.5-1.8,0.7c-3.5,0.4-6,2.4-8.6,4.4l-0.3,0.2c-3.8,1.1-7.2,3-10.3,5.6c-0.3,0-0.6,0.1-0.8,0.4c-1.4-0.1-2.6,0.1-3,1.8
	l0,0c-1.1,0.3-2.3,0.5-3.3,1c-11.7,6.6-23.4,12.9-34.4,20.6c-3.1,2.1-7.2,2.8-9.2,6.4c-0.4,0.2-0.9,0.3-1.3,0.5l-0.4,0l0,0.4
	c-0.2,0.1-0.4,0.3-0.5,0.5c-0.3,0.2-0.5,0.4-0.8,0.6l-0.1,0.1c-5.2,2.6-10,5.7-13.9,9.9c-25.9,18.5-48.3,40.5-64.4,68.2
	C144.8,427.6,140,451.4,147.1,476.9z M296.2,193c6.3-0.3,11-4.4,15.2-8.1c10.4-9.1,20.4-18.9,30.4-28.4c4.7-4.4,8.4-10.4,12.5-15.6
	c6.7-8.3,6.4-18.2,8.6-27.6c0.3-1.1-0.3-2.2-0.7-3.3c-2.2-6.4-4.3-12.5-8.4-18.3c-3.4-4.8-7.2-8-11.7-10.7c-8.4-5-17.2-8.3-27.4-6.1
	c-3.9,0.9-8,0.3-12,2.2c-16.6,7.8-28.2,20.2-31.3,38.2c-2.5,14.9-1.1,30.5,4.3,44.7c2.8,7.3,4.7,15.1,9.3,21.7
	c1.3,1.9,3.7,3,3.8,5.6C289.2,191.9,292.1,193.1,296.2,193z"/>
<path fill="#FDFDFB" d="M289,295.3c0.2-0.3,0.5-0.4,0.8-0.4c5.1,1.8,8.5,0,10.3-5.6c0,0,0.3-0.2,0.3-0.2c3.2-0.9,8.3,1.9,8.7-4.4
	c0.6-0.2,1.2-0.5,1.8-0.7c1.8-0.2,3.5-0.5,4.1-2.5c0.4-0.1,0.7-0.3,1.1-0.4c6.5-0.2,12.2-2.3,15.9-8c0,0,0,0,0,0
	c3.5-0.2,8,1.4,8-4.7c0.7-0.4,1.3-0.8,2-1.2c0.3-0.3,0.7-0.5,1-0.8c0,0,0.2-0.2,0.2-0.2c0.2-0.1,0.5-0.3,0.6-0.6
	c14.6-10.3,27.9-21.9,39-36c9.1-11.5,15.6-24.6,20.5-38.3c6.8-18.9,10.9-38.3,11.5-58.4c0.6-22.3-5.5-42.6-17.9-61.1
	c-0.2-0.2-0.4-0.5-0.5-0.7c-0.3-0.1-0.4-0.3-0.6-0.6c0,0-0.3-0.3-0.3-0.3c-0.3-0.2-0.4-0.4-0.5-0.7c-0.3-2,0.5-4.8-3.2-4.4l0,0
	c-0.3-0.3-0.7-0.7-1-1c0,0,0,0,0,0c-0.3-0.3-0.7-0.7-1-1c0,0,0,0,0,0c0-2-1-3-3-3l0.1,0c-0.4-0.3-0.7-0.7-1.1-1l0,0
	c-0.3-0.4-0.7-0.7-1-1.1c-0.4-0.2-0.8-0.5-1.1-0.7c0,0-0.3-0.3-0.3-0.3c-0.2,0-0.3-0.1-0.4-0.3c-0.2-1.1-0.9-1.6-2-1.7
	c-0.4-0.2-0.9-0.4-1.3-0.6c-0.1-0.1-0.3-0.2-0.4-0.4c-0.2,0-0.3-0.1-0.4-0.3c-0.3-0.2-0.5-0.4-0.8-0.7c-0.5-0.3-1-0.5-1.5-0.8
	c0,0,0-0.1,0-0.1c-0.3-0.1-0.5-0.4-0.7-0.6c-0.2-0.2-0.5-0.4-0.7-0.5c0,0-0.2-0.2-0.2-0.2c-1.5-3.7-5.5-6-8.2-7.2
	c-3-1.4-7.1-2.2-10.8-2.5c-3.8-0.6-7.4-1.7-11-3.1c0.7-0.9,1.7-0.9,2.7-0.9c8.6-0.1,16.9,0.7,24.3,5.7c5,3.4,11.4,3.6,16.6,6.3
	c3,1.5,4.5,5.4,8.2,5.9c3.9,0.5,6.8,2.8,10,4.7c3.3,1.9,5.3,6.6,10.2,5.4c10.5,6.3,19.1,14.7,26.3,24.5
	c16.8,22.8,25.6,48.4,27.9,76.6c2.9,34.8-3.6,68.1-15.1,100.7c-1.7,4.8-3.7,9.5-5.6,14.3c-4.4,1.8-7.7,4.3-5.8,9.8
	c0.1,0.4,0,1-0.3,1.4c-3.9,6-5,13.2-8.9,19.3c-1.5,2.3-3.4,4.9-2.9,8.1l-0.1,0.3c-0.3,0.3-0.5,0.7-0.8,1l0,0
	c-6.6,3.4-11.5,8.4-15,15l0,0c-0.3,0.3-0.7,0.6-1,0.9c0,0-0.1,0-0.1,0c-6.9,3.2-11.5,10.2-19.4,11.8c-0.5,0.1-1.1,0.9-1.2,1.5
	c-0.5,2.9-2.9,4.4-4.7,6.2c-3.9,4-9.5,5.6-13.7,9.5c-6,5.6-12.8,10.3-20.6,13.3c-2.3,0.9-3.7,2.8-3.3,5.5c-0.2,0.3-0.5,0.4-0.8,0.3
	c-8.6,1.1-14.9,6.4-21.2,11.8l-0.3,0.3c0,0-0.4,0-0.4,0c-2.4,0-4.8-0.1-7.2-0.1c-0.1-0.6-0.1-1.4-1-1.5c-0.2,0-0.6,0.4-0.6,0.6
	c0.1,0.9,0.8,0.9,1.5,1c0,1.3,0,2.5,0,3.8c-12.7,6.6-26.1,11.5-39.7,15.6c-20,6-39.7,13-59,21.1c-25.2,10.7-49.6,22.9-72,38.6
	c-1.5,1.1-3.1,2.9-5.2,0.8c-7.1-25.5-2.3-49.4,10.7-71.8c16.1-27.7,38.4-49.6,64.4-68.2c4.5,0.4,6-4.3,9.4-5.5
	c2.3-0.8,4.3-1.7,4.5-4.5c0,0,0.1-0.1,0.1-0.1c0.3-0.2,0.6-0.3,0.8-0.6c0.1-0.2,0.3-0.4,0.5-0.5c0.1-0.1,0.2-0.3,0.4-0.4
	c0.4-0.2,0.9-0.3,1.3-0.5c0.8-0.1,1.9,0,2.4-0.5c4.2-3.6,9.7-4.8,14.2-8.3c2.2-1.7,6.5-3.1,8.5-5.1c3.1-2.9,6.4-4.9,10-5.9
	c5.1-1.4,8.5-4.6,11.8-8.3l0,0C287.4,297,288.8,297.1,289,295.3z"/>
<path fill="#FDFCFB" d="M136.8,820.7c-1.5-2.9-0.5-5.4,0.9-8c10.2-18.8,24-34.2,42.1-45.7c30-18.9,63.3-28.1,98-33
	c22.6-3.2,45.5-4,68.2-2.8c38.1,2.1,75.6,8.3,111.9,20.8c21.9,7.5,43.1,16.5,63.1,28.3c0.7,0.4,1.5,0.5,2.3,0.8c1,1.5,0.4,2.6-0.6,4
	c-19.3,25.2-42.2,46.2-69.1,63c-16.9,10.5-34.6,19.8-53.5,26c-16.1,5.3-32.6,9.1-49.5,11.3c-24.4,3.3-48.8,3.4-73.2,0.1
	c-24-3.3-47-9.7-69.3-19.4c-18.1-8-35.3-17.4-51.3-29.1C150,831.9,143.5,826.2,136.8,820.7z M370.1,781.2c-2.8-1.3-0.8-2,0.4-2.6
	c4.4-2.4,8.7-4.8,13.1-7.2c1.5-0.8,3-1.5,2.4-3.7c-4.4-15.2-19.1-24-33.3-16.2c-17.8,9.9-22.9,38.3-10,54.2c8.2,10,20,11.8,30.6,4.2
	c8-5.7,12-13.9,13.8-23.5c0.8-4.1-0.8-5.1-4.4-4.6C378.7,780.4,374.4,781.1,370.1,781.2z M271.4,786.2c-5.9,3.2-11.1,6-16.3,8.9
	c-1.5,0.8-3.5,1.3-2.6,4c2.9,8.2,7.4,15,16.1,17.8c8.4,2.7,15.8,0.5,22.2-5.3c13.5-12.2,16.1-34.2,6-49.3
	c-7.1-10.6-20.6-13.3-31.1-6.1c-8.3,5.7-12.2,14.2-14.4,23.7c-0.8,3.6,0.4,4.7,3.9,4.8C260.2,785,265.4,784.6,271.4,786.2z
	 M323.3,849c12.8,1.1,22.2-12.1,21.5-20.8c-0.2-2.3-0.1-5-3.4-5.1c-3.5-0.1-3.2,2.5-3.4,4.9c-0.6,8-5.6,13.6-12.6,14.3
	c-7.7,0.8-13.5-3.4-15.7-11.3c-0.7-2.4-1.5-4.6-4.6-3.8c-3,0.8-2.2,3.4-1.9,5.4C304.5,841.8,313.3,849,323.3,849z"/>
<path fill="#FDFCFB" d="M507,464.8c-3.1,6.7-10,8.6-15.6,12c-10.5,6.3-21.9,10.8-33.6,13.6c-10.4,2.5-20.3,6.6-30.7,8.9
	c-9.1,2-18.1,5.4-27.2,7c-10.2,1.8-19.5,7.6-30.3,6.5c7.8-4,16.3-5.3,24.6-7.4c23.1-5.9,46.6-10.7,69.1-18.8
	c14.3-5.1,28.5-10.8,40.5-20.6C504.7,465.4,505.9,465.2,507,464.8z"/>
<path fill="#FDFCFB" d="M417.1,65c-4.9,1.2-6.9-3.5-10.2-5.4c-3.2-1.9-6.1-4.2-10-4.7c-3.7-0.4-5.3-4.3-8.2-5.9
	c-5.3-2.7-11.6-2.9-16.6-6.3c-7.4-5-15.7-5.8-24.3-5.7c-1,0-2,0.1-2.7,0.9c-11.4-1.7-22.9-3.4-34.5-3.3c23.1-4.7,45.2-1.2,66.8,7.3
	c12.7,5,24.3,12,35.8,19.4C414.6,62.3,416.4,63.1,417.1,65z"/>
<path fill="#FDFCFB" d="M353,384.7c-0.4-2.7,1-4.6,3.3-5.5c7.8-3.1,14.6-7.7,20.6-13.3c4.2-3.9,9.8-5.5,13.7-9.5
	c1.8-1.8,4.2-3.3,4.7-6.2c0.1-0.6,0.7-1.4,1.2-1.5c7.9-1.6,12.5-8.6,19.4-11.8c-9.7,10.4-20.9,19.1-32.3,27.5
	c-8.6,6.4-17.7,12.2-26.6,18.3C355.7,383.6,354.6,384.7,353,384.7z"/>
<path fill="#FDFCFB" d="M297,537.2c-4,3.9-9.4,5.5-14.3,7.6c-1.6,0.7-2.9,1.1-4.3,2.4c-1.5,1.4-3.2,4.6-6.5,2
	c-1.4-1.1-2.6,0.9-3.9,1.4c-8.6,3.5-16.8,8.2-26,10.3c10.7-6.3,22.4-10.7,33.7-15.8c5.6-2.5,11.4-4.6,17-6.9
	C294.1,537.7,295.4,537,297,537.2z"/>
<path fill="#FDFCFB" d="M432.9,319.7c-0.6-3.2,1.4-5.8,2.9-8.1c3.9-6.1,4.9-13.3,8.9-19.3c0.3-0.4,0.4-1,0.3-1.4
	c-1.9-5.5,1.4-8,5.8-9.8C445.9,294.5,440,307.3,432.9,319.7z"/>
<path fill="#FDFCFB" d="M241,561.3c-0.1,1.6,0.1,3-2.1,3.8c-5,1.7-9.1,5.2-14.5,6.3c-2.8,0.6-4.6,4.8-8.5,3.5
	C223.6,569.2,232.4,565.4,241,561.3z"/>
<path fill="#FDFCFB" d="M331,396.8c6.3-5.3,12.6-10.6,21.2-11.8C345.6,389.8,338.6,393.9,331,396.8z"/>
<path fill="#FDFCFB" d="M560.7,521c-2.5,0.5-4.3-0.9-5.4-2.7c-3-5.3-8.3-9.1-10.4-15.1C550.5,508.9,555.8,514.8,560.7,521z"/>
<path fill="#FDFCFB" d="M417,336c3.4-6.6,8.4-11.5,15-15C427.7,326.8,422.7,331.7,417,336z"/>
<path fill="#FDFCFB" d="M212,577c0.2,2.5-0.2,4.6-3.4,4c-2.8-0.6-4.2,2.7-6.9,2C204.6,580,208.1,578.1,212,577z"/>
<path fill="#FDFCFB" d="M323,397c2.4,0,4.8,0.1,7.2,0.1c-2,2-4.4,3.3-7.2,3.7C323,399.6,323,398.3,323,397L323,397z"/>
<path fill="#FDFCFB" d="M161,609.2c0.5,4-0.4,6.4-5,3.9C157.3,611.2,158.9,609.8,161,609.2z"/>
<path fill="#FDFCFB" d="M215.9,574.8c-0.6,2-2.2,2.2-4,2.1C212.9,575.6,214.2,574.8,215.9,574.8z"/>
<path fill="#FDFCFB" d="M156,613.1c-0.5,1.2-1.5,1.9-2.8,2C153.5,613.4,154.7,613.2,156,613.1z"/>
<path fill="#FDFCFB" d="M416,336.9c0.3-0.3,0.7-0.6,1-0.9C417,336.6,416.6,336.9,416,336.9z"/>
<path fill="#FDFCFB" d="M432,321c0.3-0.3,0.5-0.7,0.8-1C432.9,320.6,432.6,320.9,432,321z"/>
<path fill="#AFBC24" d="M296.2,193c-4,0.2-7-1.1-7.2-5.6c-0.1-2.7-2.5-3.8-3.8-5.6c-4.5-6.6-6.5-14.5-9.3-21.7
	c-5.5-14.2-6.9-29.8-4.3-44.7c3.1-18,14.7-30.4,31.3-38.2c4-1.9,8-1.3,12-2.2c10.2-2.2,19.1,1.1,27.4,6.1c4.5,2.7,8.4,6,11.7,10.7
	c4.1,5.8,6.2,11.9,8.4,18.3c0.4,1.1,0.9,2.2,0.7,3.3c-2.2,9.4-2,19.2-8.6,27.6c-4.1,5.2-7.8,11.1-12.5,15.6
	c-10.1,9.5-20,19.2-30.4,28.4C307.2,188.6,302.5,192.7,296.2,193z M321.6,89.9c-18.8,0.2-32.6,13.2-34.7,30.6
	c-2.2,18,3.1,34.5,10.4,50.6c1.2,2.7,2.9,2.3,4.7,0.7c14.7-13.4,31-25.2,41.2-42.8c4.5-7.7,8-16,2.1-24.8
	C339.1,95,330.5,90.3,321.6,89.9z"/>
<path fill="#FDFCFB" d="M286,297c-3.3,3.6-6.6,6.9-11.8,8.3c-3.6,1-7,2.9-10,5.9c-2,2-6.3,3.4-8.5,5.1c-4.5,3.5-10,4.7-14.2,8.3
	c-0.5,0.5-1.6,0.3-2.4,0.5c2-3.7,6.1-4.3,9.2-6.4c11-7.6,22.8-14,34.4-20.6C283.7,297.5,284.9,297.4,286,297z"/>
<path fill="#FDFCFB" d="M356,41c3.8,0.3,7.8,1.2,10.8,2.5c2.8,1.3,6.7,3.5,8.2,7.2C368.7,47.5,362.4,44.3,356,41z"/>
<path fill="#FDFCFB" d="M332,273c-3.8,5.7-9.4,7.8-15.9,8C320.9,277.5,326.3,274.8,332,273z"/>
<path fill="#FDFCFB" d="M236,327.1c-0.2,2.8-2.2,3.7-4.5,4.5c-3.5,1.2-5,5.9-9.4,5.5C226.1,332.8,230.9,329.7,236,327.1z"/>
<path fill="#FDFCFB" d="M300.1,289.3c-1.8,5.6-5.2,7.4-10.3,5.6C292.9,292.3,296.3,290.4,300.1,289.3z"/>
<path fill="#FDFCFB" d="M309,284.7c-0.4,6.4-5.5,3.5-8.7,4.4C303,287.1,305.6,285.1,309,284.7z"/>
<path fill="#FDFCFB" d="M340,268.2c0,6.1-4.5,4.6-8,4.7C334.3,270.7,337,269.3,340,268.2z"/>
<path fill="#FDFCFB" d="M391.9,65c3.7-0.5,2.9,2.4,3.2,4.4C393.5,68.4,392.6,66.8,391.9,65z"/>
<path fill="#FDFCFB" d="M315,281.4c-0.6,2.1-2.4,2.4-4.1,2.5C311.6,282.1,313.2,281.5,315,281.4z"/>
<path fill="#FDFCFB" d="M386.9,60c2,0,3,1,3,3C388.3,62.7,387.3,61.7,386.9,60z"/>
<path fill="#FDFCFB" d="M289,295.3c-0.2,1.9-1.6,1.7-3,1.8C286.4,295.4,287.6,295.2,289,295.3z"/>
<path fill="#FDFCFB" d="M381.1,55c1.1,0.1,1.8,0.6,2,1.7C381.9,56.8,381.2,56.2,381.1,55z"/>
<path fill="#FDFCFB" d="M375.3,51c0.2,0.2,0.5,0.4,0.7,0.5C375.7,51.3,375.5,51.1,375.3,51z"/>
<path fill="#FDFCFB" d="M376.7,52.1C376.7,52.1,376.7,52.2,376.7,52.1C376.7,52.2,376.7,52.1,376.7,52.1z"/>
<path fill="#FDFCFB" d="M378.3,53c0.3,0.2,0.5,0.5,0.8,0.7C378.8,53.4,378.5,53.2,378.3,53z"/>
<path fill="#FDFCFB" d="M379.4,54c0.1,0.1,0.3,0.2,0.4,0.4c0,0-0.4,0-0.4,0L379.4,54z"/>
<path fill="#FDFCFB" d="M383.4,57c0,0,0.3,0.3,0.3,0.3s-0.3,0-0.3,0L383.4,57z"/>
<path fill="#FDFCFB" d="M384.9,58c0.3,0.4,0.7,0.7,1,1.1C385.6,58.7,385.3,58.4,384.9,58z"/>
<path fill="#FDFCFB" d="M385.9,59c0.4,0.3,0.7,0.7,1.1,1C386.6,59.7,386.3,59.4,385.9,59z"/>
<path fill="#FDFCFB" d="M389.9,63c0.3,0.3,0.7,0.7,1,1C390.6,63.7,390.3,63.4,389.9,63z"/>
<path fill="#FDFCFB" d="M390.9,64c0.3,0.3,0.7,0.7,1,1C391.6,64.7,391.3,64.4,390.9,64z"/>
<polygon fill="#FDFCFB" points="395.6,70.1 395.9,70.4 395.6,70.4 "/>
<path fill="#FDFCFB" d="M396.5,71c0.2,0.2,0.4,0.4,0.5,0.7C396.8,71.5,396.7,71.2,396.5,71z"/>
<path fill="#FDFCFB" d="M237,326.5c-0.3,0.2-0.5,0.4-0.8,0.6C236.4,326.8,236.7,326.7,237,326.5z"/>
<path fill="#FDFCFB" d="M237.9,325.6c-0.1,0.1-0.2,0.3-0.4,0.4c0,0,0-0.4,0-0.4L237.9,325.6z"/>
<path fill="#FDFCFB" d="M343,266.2c-0.3,0.3-0.7,0.5-1,0.8C342.4,266.8,342.7,266.5,343,266.2z"/>
<path fill="#FDFCFB" d="M343.9,265.5c-0.2,0.2-0.4,0.4-0.6,0.6C343.5,265.8,343.7,265.7,343.9,265.5z"/>
<path fill="#FDFCFB" d="M323,397c-0.6-0.1-1.4-0.1-1.5-1c0-0.2,0.4-0.6,0.6-0.6C322.9,395.6,322.9,396.3,323,397
	C323,397,323,397,323,397z"/>
<path fill="#FFFFFF" d="M382.8,781.9c3.6-0.5,5.2,0.5,4.4,4.6c-1.8,9.5-5.8,17.7-13.8,23.5c-10.6,7.5-22.4,5.8-30.6-4.2
	c-13-15.9-7.9-44.3,10-54.2c14.2-7.8,28.9,1,33.3,16.2c0.6,2.2-0.9,2.9-2.4,3.7c-4.4,2.4-8.8,4.7-13.1,7.2c-1.2,0.7-3.2,1.3-0.4,2.6
	C374.3,782.6,378.6,782,382.8,781.9z"/>
<path fill="#C20870" d="M271.4,786.2c-5.9-1.6-11.1-1.2-16.2-1.4c-3.5-0.1-4.7-1.2-3.9-4.8c2.2-9.5,6.1-18,14.4-23.7
	c10.5-7.2,24-4.5,31.1,6.1c10.1,15.1,7.5,37.2-6,49.3c-6.4,5.7-13.8,8-22.2,5.3c-8.6-2.8-13.2-9.6-16.1-17.8c-0.9-2.7,1-3.1,2.6-4
	C260.3,792.2,265.5,789.4,271.4,786.2z"/>
<path fill="#F28886" d="M323.3,849c-10,0-18.9-7.1-20.2-16.5c-0.3-2-1.1-4.6,1.9-5.4c3.1-0.8,3.9,1.4,4.6,3.8
	c2.3,7.9,8.1,12.1,15.7,11.3c7.1-0.7,12.1-6.3,12.6-14.3c0.2-2.4,0-5,3.4-4.9c3.3,0.1,3.2,2.7,3.4,5.1
	C345.5,836.9,336.1,850.1,323.3,849z"/>
<path fill="#FFFFFF" d="M382.8,781.9c-4.3,0.1-8.5,0.7-12.7-0.7C374.4,781.1,378.7,780.4,382.8,781.9z"/>
<path fill="#AFBC24" d="M539,831.4c0-0.7,0-1.3,0-2c0-7.5,0-7.5,7.4-7.6c6.7-0.1,8.7,2.3,7.3,8.8c-0.6,2.9,1.3,5.4,0.6,8.3
	c-0.3,1,0.4,2.5-1.4,2.7c-1.5,0.1-2.5-0.6-2.8-2.2c-0.1-0.7-0.3-1.3-0.4-2c-0.4-2.2-1.2-3.7-3.9-3.4c-2.5,0.3-2.7,1.9-2.8,3.8
	c-0.1,1.4,0.8,3.7-2,3.6c-2.4-0.1-2.1-2.1-2.2-3.7c-0.1-2.2,0-4.3,0-6.5C538.9,831.4,538.9,831.4,539,831.4z M546.3,830.2
	c1.5-0.1,3.3,0.1,3.3-2c0-1.9-1.6-2.4-3.1-2.5c-1.6-0.1-3.1,0.4-3.2,2.3C543,830.4,544.9,830.1,546.3,830.2z"/>
<path fill="#FDFCFB" d="M321.6,89.9c8.8,0.4,17.4,5.1,23.6,14.3c5.9,8.8,2.4,17.1-2.1,24.8c-10.2,17.6-26.6,29.4-41.2,42.8
	c-1.8,1.6-3.5,2-4.7-0.7c-7.3-16.1-12.6-32.5-10.4-50.6C289.1,103.1,302.9,90.1,321.6,89.9z"/>
<g>
	<g>
		<path fill="#C20870" d="M340.2,792.3c-1.2,1.6,0.2-0.3,0.6-0.6c0.9-1,1.8-2,2.8-2.9c2.8-2.7,5.9-5,9.3-6.7
			c12.3-6,22.8,1,30.5,10.8c3.1,3.9,8.6-1.6,5.5-5.5c-9.2-11.7-22.6-19.2-37.3-13.2c-7.1,2.9-13.5,8.1-18.2,14.3
			C330.5,792.4,337.2,796.3,340.2,792.3L340.2,792.3z"/>
	</g>
</g>
</svg>
