<?xml version="1.0" encoding="utf-8"?>
<!-- Generator: Adobe Illustrator 18.1.0, SVG Export Plug-In . SVG Version: 6.00 Build 0)  -->
<svg version="1.1" id="Layer_1" xmlns="http://www.w3.org/2000/svg" xmlns:xlink="http://www.w3.org/1999/xlink" x="0px" y="0px"
	 viewBox="0 0 32 32" enable-background="new 0 0 32 32" xml:space="preserve">
<path fill="#B1D137" d="M4.3-0.3h23.4C30.1-0.3,32,1.6,32,4v23.4c0,2.4-1.9,4.3-4.3,4.3H4.3c-2.4,0-4.3-1.9-4.3-4.3L0,4
	C0,1.6,1.9-0.3,4.3-0.3z"/>
<path fill="#FFFFFF" d="M24.2,9.4c0.7,0.7,1.3,1.4,2,2.1C22.9,15,19.5,18.4,16,21.9C12.6,18.4,9.2,15,5.8,11.5
	c0.7-0.7,1.4-1.3,2.1-1.9c2.6,2.6,5.4,5.2,8.1,7.9C18.7,14.8,21.4,12.2,24.2,9.4z"/>
</svg>
