<?xml version="1.0" encoding="utf-8"?>
<!-- Generator: Adobe Illustrator 18.1.0, SVG Export Plug-In . SVG Version: 6.00 Build 0)  -->
<svg version="1.1" id="Layer_1" xmlns="http://www.w3.org/2000/svg" xmlns:xlink="http://www.w3.org/1999/xlink" x="0px" y="0px"
	 viewBox="0 0 32 32" enable-background="new 0 0 32 32" xml:space="preserve">
<g>
	<path fill="#B1D137" d="M32,16.1c0,3.5-0.1,7,0,10.4c0.1,3.3-2.5,5.5-5.5,5.5c-7-0.1-14,0-21,0C2.3,32,0,29.8,0,26.5
		c0-7,0-14.1,0-21.1C0,2.2,2.3,0,5.5,0c7.1,0,14.1,0,21.2,0C29.8,0,32,2.2,32,5.3C32,8.9,32,12.5,32,16.1z M7.7,18.5
		c2.8-2.8,5.5-5.4,8.3-8.1c2.7,2.7,5.5,5.3,8.1,7.9c0.7-0.6,1.3-1.2,2.1-1.9C22.7,13,19.4,9.5,15.9,6c-3.5,3.5-6.9,7-10.2,10.4
		C6.4,17.1,7,17.8,7.7,18.5z M18.5,24.1c0-0.3,0-0.6-0.1-0.9C18.2,21.9,17.3,21,16,21c-1.3,0-2.3,0.7-2.5,2.1
		c-0.1,0.7-0.1,1.5,0,2.2c0.2,1.3,1.1,2,2.5,1.9c1.3,0,2.1-0.8,2.3-2.1C18.4,24.8,18.5,24.5,18.5,24.1z M20.6,25.2
		c0.5-0.1,1-0.1,1.4-0.2c1-0.2,1.6-1,1.6-2c0-1-0.6-1.7-1.6-1.8c-0.8-0.1-1.6,0-2.5,0c0,2.1,0,4,0,6c0.4,0,0.7,0,1,0
		C20.5,26.4,20.6,25.8,20.6,25.2z M13.2,21.2c-1.6,0-3,0-4.5,0c0,0.3,0,0.6,0,0.9c0.6,0,1.1,0.1,1.7,0.1c0,1.7,0,3.3,0,5
		c0.4,0,0.7-0.1,1.1-0.1c0-1.7,0-3.3,0-4.9c0.6,0,1.1-0.1,1.7-0.1C13.2,21.8,13.2,21.5,13.2,21.2z"/>
	<path fill="#FFFFFF" d="M7.7,18.5c-0.7-0.7-1.3-1.4-2-2.1C9.1,13,12.5,9.6,15.9,6c3.4,3.5,6.8,6.9,10.2,10.4
		c-0.7,0.7-1.4,1.3-2.1,1.9c-2.6-2.6-5.4-5.2-8.1-7.9C13.2,13.1,10.5,15.8,7.7,18.5z"/>
	<path fill="#FFFFFF" d="M18.5,24.1c0,0.3,0,0.7-0.1,1c-0.2,1.3-1.1,2-2.3,2.1c-1.4,0-2.3-0.6-2.5-1.9c-0.1-0.7-0.1-1.5,0-2.2
		c0.2-1.4,1.2-2.1,2.5-2.1c1.3,0,2.2,0.9,2.4,2.2C18.4,23.5,18.5,23.8,18.5,24.1z M17.4,24.1c-0.1-0.5-0.2-0.9-0.3-1.3
		C16.9,22.3,16.5,22,16,22c-0.5,0-0.9,0.3-1.1,0.8c-0.3,0.9-0.3,1.8,0,2.7c0.2,0.5,0.6,0.7,1.1,0.7c0.5,0,0.9-0.3,1.1-0.7
		C17.2,25.1,17.3,24.6,17.4,24.1z"/>
	<path fill="#FFFFFF" d="M20.6,25.2c0,0.6-0.1,1.2-0.1,1.9c-0.3,0-0.6,0-1,0c0-2,0-3.9,0-6c0.9,0,1.7-0.1,2.5,0
		c1,0.1,1.6,0.8,1.6,1.8c0,1-0.6,1.7-1.6,2C21.6,25,21.2,25.1,20.6,25.2z M20.6,22.1c0,0.6,0,1.2,0,1.8c0.7,0.2,1.2,0.2,1.5-0.4
		c0.2-0.3,0.2-0.8,0-1.1C21.9,21.9,21.3,21.9,20.6,22.1z"/>
	<path fill="#FFFFFF" d="M13.2,21.2c0,0.3,0,0.6,0,0.9c-0.6,0-1.1,0.1-1.7,0.1c0,1.6,0,3.2,0,4.9c-0.4,0-0.7,0-1.1,0.1
		c0-1.7,0-3.3,0-5c-0.6,0-1.1-0.1-1.7-0.1c0-0.3,0-0.6,0-0.9C10.2,21.2,11.7,21.2,13.2,21.2z"/>
	<path fill="#B1D137" d="M20.6,22.1c0.7-0.2,1.3-0.2,1.6,0.4c0.2,0.3,0.2,0.8,0,1.1c-0.3,0.5-0.9,0.6-1.5,0.4
		C20.6,23.3,20.6,22.8,20.6,22.1z"/>
	<ellipse fill="#B1D137" cx="15.9" cy="24.1" rx="1.3" ry="2.1"/>
</g>
</svg>
