<?xml version="1.0" encoding="utf-8"?>
<!-- Generator: Adobe Illustrator 18.1.0, SVG Export Plug-In . SVG Version: 6.00 Build 0)  -->
<svg version="1.1" id="Layer_1" xmlns="http://www.w3.org/2000/svg" xmlns:xlink="http://www.w3.org/1999/xlink" x="0px" y="0px"
	 viewBox="0 0 32 32" enable-background="new 0 0 32 32" xml:space="preserve">
<path fill="#B1D137" d="M27.7,32H4.3C1.9,32,0,30.1,0,27.7V4.3C0,1.9,1.9,0,4.3,0h23.4C30.1,0,32,1.9,32,4.3v23.4
	C32,30.1,30.1,32,27.7,32z"/>
<path fill="#FFFFFF" d="M7.8,21.6c-0.7-0.7-1.3-1.4-2-2.1c3.3-3.4,6.7-6.8,10.2-10.4c3.4,3.5,6.8,6.9,10.2,10.4
	c-0.7,0.7-1.4,1.3-2.1,1.9c-2.6-2.6-5.4-5.2-8.1-7.9C13.3,16.2,10.6,18.8,7.8,21.6z"/>
</svg>
