<?xml version="1.0" encoding="utf-8"?>
<!-- Generator: Adobe Illustrator 18.1.0, SVG Export Plug-In . SVG Version: 6.00 Build 0)  -->
<svg version="1.1" id="Layer_1" xmlns="http://www.w3.org/2000/svg" xmlns:xlink="http://www.w3.org/1999/xlink" x="0px" y="0px"
	 viewBox="0 0 111.7 129.1" enable-background="new 0 0 111.7 129.1" xml:space="preserve">
<g>
	<path fill="#8B713E" d="M14.1,99.8c1.7-1.7,4-1.2,6-1.9c5-1.8,9.3-3.8,10.3-10c0.6-3.6,3.9-5.6,6.5-7.9c1.5-1.3,2.8-2.8,4.1-4.3
		c0.3-0.7,0.4-1.4,0.9-2c1.7-1.6,2.7-3.5,3-5.9c0.2-2.1,1.2-3.6,3.5-4c7,1.5,13.9,2.1,20.9,0c3.8,0.7,5.1,3.5,5.5,6.9
		c5.1,8.3,6.8,16.8,2.4,26c-1.3,2.7-0.1,5.3,1.2,7.6c1.5,2.7,3.4,5.3,5.3,7.8c4.8,6.3,4.8,6.4-0.7,11.8c-3.2,5.2-8.3,5.6-13.6,4.9
		c-4.6-0.6-6.7-3.8-7.5-8c-0.6-3-2.3-5.8-1.9-9c1.9-1.6,4.6-1.4,6.6-2.8c0.5-0.5,1.3-0.6,1.8-0.9c-0.1,0-0.2,0.1-0.3,0.1
		c-0.8,0.1-1.3,0.6-1.9,1c-2.1,0.8-4.2,1.6-6.5,1.7c-5.9-0.5-12-0.2-17.4-3.5c-2.2-1.4-2.4,1-3.1,2c-3.6,4.7-7,9.7-13.4,11.2
		c-0.9-0.8-1.2-2-1.2-3.1C24.6,109.5,20.9,103.7,14.1,99.8z"/>
	<path fill="#8C723E" d="M36.6,61.9C25.7,53,22.4,39,28.3,25.9c4.4-9.9,12.1-16.4,22-20.7c1.6-0.7,3.1,0.9,4.4-0.6
		c0.3-0.1,0.6-0.2,0.9-0.3c0.3,0.1,0.6,0.3,0.8,0.5c0,0,0.5,0,0.5,0c1.7-2.2,7,0.9,6.1-4.8c2.8,1.3,4.7,3.4,4.2,5.8
		c-0.9,3.9,1.7,5.2,3.7,7.1c0.4,0.5,0.4,0.9-0.2,1.2c-1.4,0.3-2.6-0.2-3.9-0.7c-8-3.5-15.6-2.5-22.7,2.3c-0.4,0.3-0.8,0.5-1.3,0.7
		c-0.4,0.3-0.8,0.5-1.2,0.7c-13.3,10-15.9,24.4-7.1,38.4c0.9,1.6,2.3,2.8,3.1,4.4C38,60.7,38.8,62,36.6,61.9z"/>
	<path fill="#C1CB31" d="M17,86c-1.3,1.5-2.6,3-3.8,4.6c-2.7,3.5-6.3,3.2-9.1,1c-2.7-2.1-5.8-5-2.9-9.2c1.4-2.1,1.8-3.5,0.1-6
		c-1.8-2.7,0.6-4.2,3.3-4.3c2.1,0,4.3,0.4,6.4,0.7c1.2-0.2,2.6,0,3,1.1C15.2,77.8,18,81.4,17,86z"/>
	<path fill="#C1CB31" d="M95.8,53c1.3-1.1,2.5-2.1,3.8-3.2c3.1-2.6,4.6-2.2,5.3,1.9c0.3,1.5,0.8,1.9,2,2.2c4.8,1.3,5.4,4.9,4.1,8.8
		c-1.4,4.3-4.8,4.8-8.8,3.3c-1-0.4-2.3-0.3-3.4-0.4c-0.7-0.2-1.2-0.6-1.5-1.2c-0.5-1.4-0.8-2.9-1.6-4.2c-0.2-0.4-0.4-0.8-0.5-1.2
		C94.6,57,93.6,54.8,95.8,53z"/>
	<path fill="#7E5A24" d="M14.1,99.8c5.6,0.4,11.4,7.7,11.8,14.9c0.1,2,0,4,0,5.9c-4.7,1.3-7.5-1.8-9.8-4.9
		C12.5,111,10.9,105.6,14.1,99.8z"/>
	<path fill="#997D44" d="M98,64.7c0.3,0.3,0.6,0.6,0.9,1c-4.5-0.5-8.5,2.6-13,1.9c2.7-1.3,0.8-2.5,0-3.8c-1.1-1.8-2.2-3.6-2.6-5.7
		c0-0.5,0.2-0.9,0.6-1.2c2.3-1.9,5.2-2,8-2.2c2.5,0.8,3,3.2,4.1,5.1l0,0C96.7,61.3,97.1,63.1,98,64.7z"/>
	<path fill="#A4874B" d="M24.7,67.7c3-2.2,6.7-2.3,10.2-2.9c3.1,3.3,3.4,7.1,2,11.2c-1.6,1.7-3.3,3.3-6,2.6c-1-3.7-1.4-7.7-5.2-10
		C25.3,68.4,25,68.1,24.7,67.7z"/>
	<path fill="#977B42" d="M36.9,75.9c-0.7-3.7-1.4-7.4-2-11.2l0,0c0.5-0.5,1.4-0.4,2-0.8c1.2-0.8-0.2-1.4-0.2-2.1
		c1.1-3-3.3-3.4-2.8-6.1c4.5,0.5,6.3,4.1,8.5,7.3c0,3.4,1.6,6.8,0,10.3c-0.5,1-1.7,0.8-2.6,1.3C38.9,75.1,37.9,75.5,36.9,75.9z"/>
	<path fill="#957943" d="M16.9,70.8c0.7-0.3,1.4-0.7,2.1-1c3.4-1,4.5,0.3,3.4,3.6c0.3,0.8,0.9,1.3,1.3,1.9c0.4,0.5,0.6,1.1,0.8,1.7
		c0.1,1.5,0.1,3.1-0.7,4.5c-1.7,1.4-3.5,2.8-5.2,4.2L18.2,86l-0.4-0.2l0,0C17.2,80.8,13.8,76,16.9,70.8z"/>
	<path fill="#998047" d="M81.7,22.8c5.6,10.3,6,20.6,0,31c-1,0.1-1.4-0.6-1.6-1.4c-0.2-1.4,0.1-2.6,0.6-3.9
		c2.6-7.4,2.3-14.6-0.8-21.8c-0.5-1.2-1-2.5-0.3-3.8C80.3,22.2,81,22.2,81.7,22.8z"/>
	<path fill="#957B44" d="M25.9,67.9c4.9-0.2,3,5,5.4,6.8c-1,1.2,2.2,2.8-0.4,3.9c-1.3,0.9-2.6,1.7-3.9,2.6
		C24.4,76.9,23.4,72.5,25.9,67.9z"/>
	<path fill="#A28748" d="M16.9,70.8c-0.5,5.1,1.7,9.9,1,15c0,0-0.4,0.1-0.4,0.1S17,86,17,86c-0.7-3.9-3.4-7.1-3.5-11.2
		c0-1.2-1.6-1.4-2.5-2.1C12.7,71.4,14.8,71,16.9,70.8z"/>
	<path fill="#9A7E45" d="M25.9,67.9c-0.5,4.5,0.6,8.9,1.1,13.3c-0.8,2-2,1.2-3.2,0.4c-1.5-1.6,0-3.2,0-4.8c-0.4-0.3-0.6-0.7-1-1
		c-0.7-0.7-1.3-1.3-2-2c3.1-0.9,1.4-4.2,3-5.9c0.2-0.2,0.5-0.3,0.8-0.2C25.1,67.7,25.5,67.8,25.9,67.9z"/>
	<path fill="#A58549" d="M83.9,56.8c0,0.3,0,0.6,0,0.9c-1.6,3.5,0.9,6.6,1,10c-0.6,0.5-0.6,2-2,1.1c-3.2-2.6-6.4-5.1-5.3-10
		c0.4-0.6,0.9-1,1.5-1.4c0.4-0.3,0.7-0.5,1.2-0.6c0.2,0,0.4-0.1,0.7-0.1C81.8,56.8,82.8,56.8,83.9,56.8z"/>
	<path fill="#957B43" d="M84.8,67.8c-3-2.2-1.7-5.9-3.2-8.7c-0.4-0.8,1.2-1.2,2.2-1.3c1.2,2.1,2.3,4.4,3.7,6.4
		c1.7,2.4-0.7,2.5-1.7,3.5C85.5,67.7,85.2,67.7,84.8,67.8z"/>
	<path fill="#917840" d="M74.8,70.7c-1.9-1.8-2.1-4.9-4.9-6c-0.4-1.9,1.3-2.1,2.3-2.8c0.4-0.2,0.8-0.4,1.3-0.5
		c0.5-0.1,0.9-0.1,1.3,0.1c1.9,1.3,2.8,3.2,3.9,5.1c1.2,2.1-0.3,2.5-1.8,3C76.2,70,75.5,70.4,74.8,70.7z"/>
	<path fill="#9A7F46" d="M76.9,69.6c2.4-3.9-1.9-5.3-3-7.9c-0.4-1.7,0.6-2.3,2.1-2.5c1.8,3.1,4.1,5.9,4.9,9.5
		C79.5,69.1,78.2,69.3,76.9,69.6z"/>
	<path fill="#9D8145" d="M80.9,68.8c-2.1-2.7-3.7-5.8-5-9c-0.6-1.8,0.6-2.6,1.9-3.3c0.5-0.1,0.9,0,1.3,0.3c0.3,0.7,0.3,1.4-0.2,2
		c-2.2,2.3,0.1,3.8,1,5.6c0.9,1.6,1.9,3,2.9,4.6C82.2,68.8,81.5,68.8,80.9,68.8z"/>
	<path fill="#A4864C" d="M23.9,67.9c-0.6,2.2,1.8,5.9-3,5.9c0.6-1.9,1.6-4-1.9-4C20.1,68,22,67.9,23.9,67.9z"/>
	<path fill="#A18447" d="M96,59.7c-2.2-1-2.8-3.4-4.1-5.1c1.2-1,2.6-1.4,4-1.6C93.9,55.3,97.6,57.5,96,59.7z"/>
	<path fill="#99834F" d="M81.7,22.8c-0.6,0-1.3,0-1.9,0c-3.1-0.7-4.4-3.2-5.5-5.8c0-0.5,0.2-0.9,0.6-1.3
		C78.1,17.1,79.5,20.3,81.7,22.8z"/>
	<path fill="#815F25" d="M59.8,110.9c2.1-1.7,4.6-1.8,7.1-2.2l0,0c-1.6,2.5-4.3,2.7-6.9,3C59.8,111.5,59.7,111.2,59.8,110.9z"/>
	<path fill="#A38F4E" d="M78.9,56.8c-0.3,0-0.6,0-1,0c-0.4-2.3,0.5-3.7,2.8-4.1c0.3,0.3,0.6,0.7,1,1c-0.3,1-0.6,2-1,3
		c0,0,0.1,0,0.1,0c-0.3,0.2-0.6,0.4-1,0.5C79.5,57.3,79.2,57.1,78.9,56.8z"/>
	<path fill="#8C723E" d="M70.9,13.9c0-0.4,0-0.7,0-1.1c1.1,0.7,2.6,0.7,3.4,2.1c-0.2,0.2-0.3,0.4-0.5,0.6c-0.4,0.2-0.9,0.3-1.4,0.3
		C71.4,15.5,70.4,15.3,70.9,13.9z"/>
	<path fill="#BFAF90" d="M39.8,74.7c0.5-0.7,1.2-1,2-0.9c0.3,0.2,0.4,0.4,0.4,0.6c0,0.2-0.1,0.4-0.2,0.4c-0.4,0.4-0.8,0.7-1.1,1.1
		C40.6,75.4,40.2,75.1,39.8,74.7z"/>
	<path fill="#947F3C" d="M74.9,15.7c0,0.4,0,0.7,0,1.1c-0.7,0.3-1.1-0.1-1.4-0.7c-0.1-0.4,0.1-0.8,0.4-1.1c0,0,0.1-0.4,0.1-0.4
		C74.2,15,74.6,15.3,74.9,15.7z"/>
	<path fill="#A4874B" d="M36.8,63.9c-0.5,0.7-1.2,0.9-2,0.8C35.5,64.5,36.2,64.2,36.8,63.9z"/>
	<path fill="#A28748" d="M17.8,85.8c0.3-0.1,0.5-0.1,0.8-0.1C18.4,86.4,18.1,86.3,17.8,85.8z"/>
	<path fill="#BFC931" d="M73.8,15.8c0.3,0.3,0.7,0.6,1,1c1.7,2,3.3,4,5,6c5,9.8,5.2,19.8,1,29.9c-0.9,1.4-1.9,2.7-2.8,4.1
		c-0.7,1-1.4,2-2.1,3c-0.7,0.7-1.3,1.3-2,2c0,0,0,0,0,0c-0.4,0.3-0.7,0.6-1,1c-1,0.7-2,1.3-3,2c-7.3,3-14.5,2.7-21.8-0.1
		c-0.6-0.3-1.2-0.3-1.8-0.5c-0.6-0.3-1.2-0.6-1.8-0.9c-0.4-0.3-0.8-0.6-1.2-0.9c-14.6-11.8-13.9-30.4-5.6-42.4
		c1.2-1.6,2.5-3.1,4.2-4.1l0,0c0.3-0.4,0.7-0.7,1.1-1c9.1-6.5,18.4-6.1,27.9-1c0.4,0.8,1.1,1,1.9,1.1C73.2,15,73.6,15.4,73.8,15.8z"
		/>
	<path fill="#9F895A" d="M73.9,85.7c0,7.6-7.1,15.1-14.2,15.1c-6.3,0-11.8-6-11.8-13c0-7.6,7.1-15,14.4-15
		C68.9,72.7,73.8,78.2,73.9,85.7z"/>
	<path fill="#90763F" d="M46.8,63.8c0.4,0.3,0.8,0.6,1.2,0.9c-1.5,0.7-2.4,1.9-2.1,3.5c0.6,3.3-1.3,5.1-3.8,6.6
		c-0.1-0.3-0.1-0.6-0.2-1c0.9-3.7-1.9-7.3,0-11c1-0.9,2-0.7,3,0l0,0C45.4,63.4,46.3,63.2,46.8,63.8z"/>
	<path fill="#85652D" d="M68.9,107.8c0.4-0.9,0.9-1.7,2.1-1.7c0.1,0,0.3,0.3,0.3,0.4C70.8,107.6,69.9,107.7,68.9,107.8L68.9,107.8z"
		/>
	<path fill="#815F25" d="M68.9,107.8c-0.4,0.8-1.2,1-2,1c0,0,0,0,0,0C67.3,107.9,68,107.8,68.9,107.8
		C68.9,107.8,68.9,107.8,68.9,107.8z"/>
	<path fill="#977C43" d="M44.9,62.7c-1,0-2,0-3,0c-2.7-2.3-5.3-4.7-8-7C27,48.5,26.4,36.2,31,27.2c2.5-4.8,5.5-9.3,10.9-11.5
		C31.6,29,30,43.1,37.8,54.6C39.8,57.5,42.5,60,44.9,62.7z"/>
	<path fill="#977C43" d="M43,14.8c-0.4,0.3-0.7,0.7-1.1,1C42.2,15.5,42.6,15.1,43,14.8z"/>
	<path fill="#A18447" d="M98,64.7c-1.7-1.3-2.2-3-2-5.1C97.5,61,98.7,62.5,98,64.7z"/>
	<path fill="#A4864C" d="M22.9,75.8c0.3,0.3,0.7,0.7,1,1C23.5,76.4,23.2,76.1,22.9,75.8z"/>
	<path fill="#B39B6F" d="M78.9,56.8c0.3,0,0.7,0,1,0l0.3,0.4c0,0-0.3,0.3-0.3,0.3c-0.3,0.4-0.7,0.8-1,1.2
		C78.9,58.1,78.9,57.4,78.9,56.8z"/>
	<path fill="#9A7F46" d="M72.8,62.7c0.3-0.3,0.7-0.6,1-1C73.5,62.1,73.2,62.4,72.8,62.7z"/>
	<path fill="#8E783C" d="M73.8,15.8c-0.4-0.3-0.7-0.7-1.1-1c0.4,0.1,0.7,0.2,1.1,0.2C73.8,15.3,73.8,15.6,73.8,15.8z"/>
	<path fill="#DFE567" d="M60.1,59.3C48.8,59.6,38.4,50,38.4,39.2c0-9.5,9.8-21.2,17.8-21.4c17-0.4,24.7,9.6,24.7,20.6
		C80.8,49.5,74.2,59.1,60.1,59.3z"/>
	<path fill="#977B42" d="M46.8,63.8c-0.8,0-1.6-0.2-2-1C45.7,62.8,46.4,63,46.8,63.8z"/>
	<path fill="#AE9969" d="M71.9,86c-0.1,6.8-5.8,12.9-12.1,12.8c-4.9-0.1-10-5.7-9.8-10.8c0.2-6.4,7-13.4,12.7-13.2
		C67.4,75,71.9,80.5,71.9,86z"/>
	<path fill="#F6F5C3" d="M46.7,34.7c0-0.5,0.5-2.9,2.1-4.1l0,0c4.9-5.1,10.7-6.4,17.3-4l0,0c1.3,1,2.7,2.1,4,3.1l0,0
		c5,8.6,3.8,15.8-4,20.4c-8.9,5.2-17.8-0.7-19.2-9.6C46.4,38.6,45.5,36.5,46.7,34.7L46.7,34.7z"/>
	<path fill="#6B5731" d="M66,26.6c0-0.2,0-0.3,0-0.5c-0.3-1.7-0.1-3.3,1.8-4c1-0.4,1.6,0.5,1.6,1.3C69.4,25.6,68.1,26.6,66,26.6
		C66,26.6,66,26.6,66,26.6z"/>
	<path fill="#6E5A31" d="M46.7,34.6c-0.5,0.1-0.9,0.3-1.4,0.4c-1.4,0.3-2.7,0-3.3-1.4c-0.3-0.7,0-1.4,0.7-1.6
		c1.4-0.5,2.6,0.1,3.4,1.3C46.3,33.7,46.5,34.2,46.7,34.6C46.7,34.7,46.7,34.6,46.7,34.6z"/>
	<path fill="#766535" d="M44.9,43.1c0.9,0.1,1.8,0.5,1.7,1.5c-0.2,1.6-1.6,2-3,2c-0.8,0-1.6-0.6-1.3-1.6
		C42.6,43.7,43.7,43.3,44.9,43.1z"/>
	<path fill="#65502E" d="M48.7,30.6c-0.2,0-0.3,0-0.5,0c-1.7-0.2-3.3-0.7-3.4-2.8c0-0.9,0.7-1.1,1.3-1C48.5,27,49,28.6,48.7,30.6
		C48.7,30.6,48.7,30.6,48.7,30.6z"/>
	<path fill="#644F2E" d="M43.1,40.8c-1.1,0-2.2-0.3-2.2-1.5c0-1.2,1.1-1.5,2.2-1.5c1.1,0,2.2,0.4,2.2,1.5
		C45.4,40.3,44.3,40.8,43.1,40.8z"/>
	<path fill="#5F492C" d="M49.4,24.6c-0.2-1.2,0.3-1.9,1.2-1.8c1.3,0.1,1.9,1.1,2.1,2.3c0.1,0.9-0.2,1.7-1.2,1.6
		C50.2,26.6,49.7,25.5,49.4,24.6z"/>
	<path fill="#6D5932" d="M51.5,55.5c-0.9-0.2-1.5-0.7-1.4-1.7c0.2-1.2,0.8-2.2,2-2.6c1-0.3,1.6,0.5,1.6,1.3
		C53.7,54,52.8,54.9,51.5,55.5z"/>
	<path fill="#624D2D" d="M73,50.8c-1.1-0.3-2-1-2.1-2.3c0-0.9,0.5-1.6,1.6-1.2c1.2,0.3,2.1,1,2.3,2.3C74.8,50.6,74,50.9,73,50.8z"/>
	<path fill="#65502E" d="M47,51.6c-1.1,0.2-1.7-0.5-1.6-1.3c0.1-1.2,1-2.1,2.2-2.4c1-0.3,1.7,0.5,1.6,1.3
		C49.1,50.5,48.2,51.2,47,51.6z"/>
	<path fill="#604A2C" d="M57.9,22.9c-0.1,0.8-0.1,1.8-1.2,1.8c-1.4-0.1-1.8-1.2-1.8-2.4c0-0.9,0.3-1.7,1.3-1.8
		C57.6,20.5,57.8,21.7,57.9,22.9z"/>
	<path fill="#644E2E" d="M63.7,22.2c-0.1,1.1-0.3,2.3-1.8,2.3c-1.1,0-1.1-1.1-1.1-1.8c0-1.2,0.2-2.4,1.7-2.4
		C63.3,20.3,63.7,21.3,63.7,22.2z"/>
	<path fill="#634D2D" d="M70,29.7c0.1-0.5,0-1,0.2-1.4c0.6-1.2,1.3-2.3,2.8-2.3c0.9,0,1.1,0.8,1,1.4c-0.2,1.5-1.1,2.3-2.6,2.4
		C70.9,29.8,70.4,29.7,70,29.7C69.9,29.7,70,29.7,70,29.7z"/>
	<path fill="#6C5931" d="M77.7,44.4c-0.2,1-0.9,1.3-1.7,1.2c-1.3-0.2-2.7-0.5-2.6-2.2c0-1,1.1-1,1.9-0.9
		C76.4,42.6,77.4,43,77.7,44.4z"/>
	<path fill="#66512F" d="M63.1,52.8c1.2,0.5,1.7,1.4,1.6,2.7c0,0.9-0.6,1.7-1.5,1.6c-1.4-0.2-1.6-1.4-1.5-2.6
		C61.8,53.6,62,52.8,63.1,52.8z"/>
	<path fill="#604A2C" d="M57.4,52.9c1.4,0.4,1.5,1.4,1.4,2.4c-0.1,1-0.5,2.1-1.7,1.9c-1.2-0.2-1.3-1.3-1.2-2.3
		C56,53.9,56.6,53.2,57.4,52.9z"/>
	<path fill="#634D2D" d="M77.4,32.4c-0.5,1.3-1.5,1.7-2.7,1.8c-0.9,0.1-1.8-0.3-1.6-1.3c0.2-1.3,1.5-1.7,2.6-1.9
		C76.6,30.9,77.2,31.5,77.4,32.4z"/>
	<path fill="#5B432A" d="M78.6,38.3c-0.4,1.1-1.2,1.5-2.3,1.5c-1.1,0-2.2-0.3-2.2-1.5c0-1.1,1.1-1.5,2.2-1.5
		C77.4,36.8,78.3,37.2,78.6,38.3z"/>
	<path fill="#584129" d="M67.8,50.9c1.4,0.1,2,1,2.2,2.2c0.1,0.9-0.2,1.7-1.2,1.5c-1.1-0.1-1.6-1-1.9-2
		C66.7,51.9,66.8,51.1,67.8,50.9z"/>
	<path fill="#BDAA79" d="M52.9,87.7c0-5.6,3.8-9.9,8.8-10c4.9-0.1,8.3,3.5,8.2,8.6c-0.1,5.3-4.4,9.4-9.6,9.4
		C55.8,95.7,52.9,92.5,52.9,87.7z"/>
	<path fill="#5E4630" d="M67.7,36.1c-0.4,1.8-0.9,3.7-3.3,3.6c-2.5-0.1-3.3-1.9-3.4-4c-0.1-2,0.8-3.7,2.9-3.9
		C67.1,31.4,66.6,34.4,67.7,36.1z"/>
	<path fill="#5D462F" d="M55,41.9c-3.7-0.1-3.3-3-3.6-4.7c-0.4-1.7,1-3.7,3.3-3.3c2.3,0.4,3.2,2.3,3.1,4.4
		C57.7,40.3,56.8,41.9,55,41.9z"/>
	<path fill="#C8B687" d="M66.9,86.2c0,3.8-3.2,7.6-6.4,7.4c-3.5-0.2-5.4-2.2-5.5-5.8c-0.2-4.3,3.4-8.3,7.1-8.1
		C64.7,80,66.9,82.8,66.9,86.2z"/>
	<path fill="#CFBF8E" d="M56.8,86.4c-0.3-3,2-4.3,4.8-4.5c3.1-0.3,4,2.3,4.1,4.6c0.1,3-1.9,5-4.9,5.1C58,91.7,56.9,89.6,56.8,86.4z"
		/>
	<path fill="#D6C896" d="M63.8,86.5c-0.2,2.4-1.3,3.3-3.3,3.2c-1.5-0.1-2.6-0.9-2.5-2.4c0.1-1.8,1.3-3.1,3.1-3.3
		C63.1,83.8,63.6,85.2,63.8,86.5z"/>
	<g>
		<g>
			<path fill="#B9C033" d="M57.5,46c0.8,0.7,1.7,1.2,2.8,1.3c2,0.3,3.4-0.9,4.2-2.6c0.4-0.8-0.8-1.6-1.2-0.7
				c-0.6,1.3-1.6,2.3-3.1,1.8c-0.5-0.2-1.2-0.5-1.6-0.8C57.8,44.4,56.8,45.4,57.5,46L57.5,46z"/>
		</g>
	</g>
</g>
</svg>
